<?xml version="1.0" encoding="utf-8"?>
<!-- Generator: Adobe Illustrator 27.0.1, SVG Export Plug-In . SVG Version: 6.00 Build 0)  -->
<svg version="1.1" id="Ebene_1" xmlns="http://www.w3.org/2000/svg" xmlns:xlink="http://www.w3.org/1999/xlink" x="0px" y="0px"
	 viewBox="0 0 957 234" style="enable-background:new 0 0 957 234;" xml:space="preserve">
<style type="text/css">
	.st0{fill:#FFFFFF;}
	.st1{fill:url(#SVGID_1_);}
	.st2{fill:url(#SVGID_00000072267085889857755220000011724019363863088548_);}
	.st3{fill:url(#SVGID_00000044870576601707817600000009649913722451760783_);}
	.st4{fill:url(#SVGID_00000014596993712122160800000007587271964094307733_);}
	.st5{fill:url(#SVGID_00000130625295404741228820000017327066647026480786_);}
	.st6{fill:url(#SVGID_00000101811662641144110510000014117897682565784709_);}
	.st7{fill:url(#SVGID_00000046302633078445864150000013830994441215107230_);}
</style>
<g>
	<path class="st0" d="M182,137.3c-0.1-1.1-0.1-2-0.1-2.9c0-36.2,0-72.5-0.1-108.7c0-2.4,0.5-3.3,3.1-3.3c29.4,0.1,58.8,0,88.2,0.2
		c11.3,0.1,22.4,1.6,32.9,6.2c14.1,6.2,23.8,16.4,28.2,31.3c4.2,14.3,4.3,28.7,1,43.2c-2.9,12.3-10.3,21.4-21,27.9
		c-1.1,0.7-2.7,1-4,1.1c-41.4,1.7-82.9,3.3-124.3,4.9C184.7,137.3,183.4,137.3,182,137.3z M239.7,109.3c5,0.9,25.5,0.2,29.9-0.9
		c6.6-1.7,10.8-5.7,12.2-12.4c1.7-7.7,1.8-15.5,0.8-23.3c-1.7-12.8-9.1-16.4-18.6-17.1c-7.9-0.6-15.8-0.3-23.7-0.3
		c-0.2,0-0.5,0.2-0.7,0.3C239.7,73.5,239.7,91.4,239.7,109.3z"/>
	<path class="st0" d="M625.1,22.8c-2.8,5.5-5.4,10.6-8,15.7c-5.7,11.2-11.4,22.3-17.1,33.5c-6.2,12.1-12.5,24.2-18.7,36.3
		c-0.5,0.9-0.8,1.8-1.3,2.7c-2.1,3.2-3.3,6.5-0.7,10c0.1,0.2,0,0.5,0,0.9c-2.2,0.1-4.3,0.3-6.5,0.4c-30.6,1.2-61.3,2.4-91.9,3.6
		c-3.7,0.1-7.3,0.2-11,0.5c-1.5,0.1-2.2-0.4-2.1-2c0-0.5,0-1,0-1.5c0-32.2,0-64.5,0-96.7c0-3.6,0-3.6,3.7-3.6c17.1,0,34.2,0,51.2,0
		c2.2,0,2.8,0.6,2.8,2.8c-0.1,25.6,0,51.2,0,76.7c0,1,0,1.9,0,2.9c0.2,0.1,0.4,0.1,0.6,0.2c2-3.9,4-7.7,6-11.6
		c6.5-12.6,13-25.3,19.5-37.9c5.4-10.5,10.8-21,16.2-31.4c0.4-0.8,1.7-1.6,2.6-1.6c17.6-0.1,35.2-0.1,52.7-0.1
		C623.6,22.6,624.1,22.7,625.1,22.8z"/>
	<linearGradient id="SVGID_1_" gradientUnits="userSpaceOnUse" x1="868.8427" y1="210.9567" x2="868.8427" y2="113.4066">
		<stop  offset="0" style="stop-color:#FFFFFF"/>
		<stop  offset="0.3453" style="stop-color:#FDFDFD"/>
		<stop  offset="0.4945" style="stop-color:#F6F6F6"/>
		<stop  offset="0.606" style="stop-color:#E9E9E9"/>
		<stop  offset="0.6987" style="stop-color:#D7D7D7"/>
		<stop  offset="0.7798" style="stop-color:#C0C0C0"/>
		<stop  offset="0.8526" style="stop-color:#A4A4A4"/>
		<stop  offset="0.9194" style="stop-color:#828282"/>
		<stop  offset="0.9796" style="stop-color:#5B5B5B"/>
		<stop  offset="1" style="stop-color:#4D4D4D"/>
	</linearGradient>
	<path class="st1" d="M792.4,210.8c-0.1-0.8-0.2-1.4-0.1-1.9c0.2-28.6,0.3-57.1,0.5-85.7c0-3.7,0.1-3.7,3.8-3.8
		c10.7-0.3,21.4-0.6,32.2-1c5.5-0.2,11-0.9,16.6-1.4c3.4-0.3,4,0,4.1,3.5c0.3,7.8,0.5,15.7,0.6,23.5c0.1,10.8,0,21.7,0,32.5
		c0,0.7,0.1,1.5,0.2,2.5c8.7-0.2,17.3,0.7,25.5-2.4c5-1.9,8.2-5.4,9-10.7c0.7-4.8,1.2-9.8,1.3-14.6c0.3-10.2,0.2-20.5,0.3-30.7
		c0.1-4.8,0.3-4.8,4.9-5c13.3-0.4,26.6-1,39.9-1.5c3.7-0.1,7.3-0.3,11-0.5c2-0.1,2.6,0.9,2.6,2.7c0.7,15.6,1.6,31.2-0.8,46.6
		c-1.4,9.2-4.3,18-10.1,25.5c-4.7,6.1-10.8,10.5-17.8,13.7c-12.5,5.7-25.8,8-39.3,8.3c-27.7,0.6-55.5,0.5-83.2,0.7
		C793.2,211,792.9,210.9,792.4,210.8z"/>
	<path class="st0" d="M938.7,107.6c-8.4,0.3-16.4,0.6-24.5,0.9c-10.5,0.4-21,0.8-31.4,1.3c-3.4,0.2-3.4,0.3-3.4-3.1
		c0-9.7,0-19.5-0.1-29.2c-0.1-3.2-0.6-6.5-1.1-9.7c-1.1-6.3-5-10.4-11.1-11.3c-7.3-1.1-14.7-1.2-22.1-1.7c-1.4-0.1-1.6,0.8-1.6,1.9
		c0,2.4,0,4.8,0,7.2c0,14.9,0,29.8,0,44.7c0,2.1-0.6,2.7-2.7,2.8c-17.6,0.6-35.1,1.3-52.7,2.1c-1.8,0.1-2.5-0.4-2.5-2.3
		c0-28.7,0-57.5,0-86.2c0-2,0.8-2.5,2.7-2.5c25.5,0.1,51,0,76.5,0.4c14.3,0.2,28.6,2,42.1,7.3c9,3.5,16.8,8.8,22.2,17
		c3.9,5.9,6.1,12.5,7.6,19.3c1.8,8.1,2,16.3,2,24.6C938.7,96.5,938.7,101.8,938.7,107.6z"/>
	<path class="st0" d="M147.4,139.1c-1.4,0.1-2.5,0.2-3.5,0.3c-21.8,0.8-43.6,1.7-65.4,2.5c-1.1,0-2.5-0.1-3.3-0.7
		c-10.7-7.7-21.5-15.1-31.7-23.3c-7-5.6-13-12.3-17-20.6c-4.9-10.4-5.8-21.3-4.1-32.4C25.1,44.8,37.7,33,55.6,26
		c14.6-5.7,30-6.8,45.5-6.1c10.7,0.4,21,2.3,30.6,7.2c10.6,5.5,17.9,14,22.3,24.9c3.2,8,4.4,16.4,4.8,24.9c0.1,1.3-0.1,2-1.6,2.1
		c-15.3,1.4-30.7,2.9-46,4.4c-0.5,0-1,0-1.9,0c-0.2-2.8-0.3-5.6-0.7-8.4c-0.5-3.7-0.8-7.5-1.9-11c-2.5-8.5-9.5-12.2-18.1-10.1
		c-6.9,1.7-11.8,9.2-11.4,16.8c0.5,8.3,3.7,15.3,10.1,20.4c9.1,7.3,18.5,14.1,27.8,21.2c7.9,6,15.9,11.8,23.7,17.9
		c2.6,2,4.8,4.6,7.2,6.9C146.5,137.6,146.8,138.2,147.4,139.1z"/>
	<path class="st0" d="M700,54.1c-0.1,1.1-0.1,1.9-0.1,2.7c0,15.2,0,30.3-0.1,45.5c0,2.4,0.8,2.9,3,2.9c13-0.1,26,0,39,0
		c1,0,2,0,3.2,0c0,3.1,0.1,6-0.1,8.8c0,0.5-1.3,1.4-2,1.4c-4.5,0.3-9,0.4-13.5,0.6c-24.5,0.9-49.1,1.8-73.6,2.7
		c-3.6,0.1-7.2,0.2-10.7,0.5c-2.2,0.2-3-0.5-3-2.9c0.1-19.2,0.1-38.3,0.1-57.5c0-11.2,0.1-22.3,0-33.5c0-2.2,0.7-2.8,2.9-2.8
		c37.2,0.1,74.3,0.1,111.5,0c2.3,0,2.8,0.7,2.8,2.9c-0.1,8.7-0.1,17.3,0,26c0,2.2-0.7,2.8-2.8,2.8c-17.7-0.1-35.3,0-53,0
		C702.4,54.1,701.3,54.1,700,54.1z"/>
	
		<linearGradient id="SVGID_00000127738504648605225080000008479984516200971944_" gradientUnits="userSpaceOnUse" x1="707.5972" y1="210.7935" x2="707.5972" y2="123.2498">
		<stop  offset="0" style="stop-color:#FFFFFF"/>
		<stop  offset="0.3356" style="stop-color:#FDFDFD"/>
		<stop  offset="0.4806" style="stop-color:#F6F6F6"/>
		<stop  offset="0.589" style="stop-color:#E9E9E9"/>
		<stop  offset="0.6791" style="stop-color:#D7D7D7"/>
		<stop  offset="0.7578" style="stop-color:#C0C0C0"/>
		<stop  offset="0.8287" style="stop-color:#A4A4A4"/>
		<stop  offset="0.8935" style="stop-color:#828282"/>
		<stop  offset="0.9521" style="stop-color:#5B5B5B"/>
		<stop  offset="0.9719" style="stop-color:#4D4D4D"/>
	</linearGradient>
	<path style="fill:url(#SVGID_00000127738504648605225080000008479984516200971944_);" d="M706.5,179.6c1.3,0,2.2,0,3.2,0
		c17.8,0,35.6,0,53.5,0c3.3,0,3.3,0,3.3,3.3c0,8.3,0,16.7,0,25c0,0.9,0,1.8,0,2.9c-39.3,0-78.3,0-117.5,0c-0.1-0.6-0.2-1.2-0.2-1.8
		c0.2-26.6,0.4-53.1,0.5-79.7c0-2.7,0.8-4.1,3.6-4c0.8,0,1.6-0.3,2.5-0.3c6.9-0.2,13.8-0.3,20.7-0.5c9.2-0.3,18.4-0.7,27.7-1.2
		c1.4-0.1,2,0.3,2.1,1.7c0.2,4.2,0.6,8.3,0.7,12.5c0.1,13,0.1,26,0.1,39C706.5,177.4,706.5,178.3,706.5,179.6z"/>
	
		<linearGradient id="SVGID_00000034071947387207735910000015533173621550206080_" gradientUnits="userSpaceOnUse" x1="89.6426" y1="214.258" x2="89.6426" y2="146.1417">
		<stop  offset="0" style="stop-color:#FFFFFF"/>
		<stop  offset="0.3453" style="stop-color:#FDFDFD"/>
		<stop  offset="0.4945" style="stop-color:#F6F6F6"/>
		<stop  offset="0.606" style="stop-color:#E9E9E9"/>
		<stop  offset="0.6987" style="stop-color:#D7D7D7"/>
		<stop  offset="0.7798" style="stop-color:#C0C0C0"/>
		<stop  offset="0.8526" style="stop-color:#A4A4A4"/>
		<stop  offset="0.9194" style="stop-color:#828282"/>
		<stop  offset="0.9796" style="stop-color:#5B5B5B"/>
		<stop  offset="1" style="stop-color:#4D4D4D"/>
	</linearGradient>
	<path style="fill:url(#SVGID_00000034071947387207735910000015533173621550206080_);" d="M101.4,148.7c2.1-0.3,4-0.7,5.9-0.7
		c5.4-0.2,10.8-0.4,16.2-0.6c10.9-0.4,21.8-0.8,32.7-1.3c1.5-0.1,2.2,0.4,2.5,1.7c2.8,10.6,2.9,21.1-1.4,31.3
		c-7.7,18-22.4,27.6-40.6,32c-19.9,4.8-39.9,3.8-59.5-2.1c-12.8-3.9-23.1-11.3-29.9-23c-4.4-7.4-6.7-15.6-7.8-24
		c-0.3-2.5-0.4-5.1-0.7-7.7c-0.1-1.7,0.6-2.4,2.3-2.4c3.2-0.1,6.5-0.4,9.7-0.5c6.7-0.2,13.5-0.3,20.2-0.6c4.2-0.2,8.4-0.6,12.6-1
		c2.4-0.2,3.3,0.7,3.8,3.1c1.3,6.7,2.8,13.4,7.1,19c4.9,6.3,15.5,9,22.7,5.4c5.3-2.6,6.6-7.7,6.7-12.8c0.1-4.4-1.1-8.9-1.8-13.3
		C101.9,150.5,101.7,149.8,101.4,148.7z"/>
	<path class="st0" d="M365.1,130.1c0-1-0.1-1.8-0.1-2.7c0-34,0-68,0-102c0-2.2,0.5-3,2.9-3c17.3,0.1,34.7,0.1,52,0c2.3,0,3,0.7,3,3
		c-0.1,33.2-0.1,66.3,0,99.5c0,2.2-0.4,3-2.9,3.1c-17.7,0.6-35.3,1.3-52.9,2C366.4,130.1,365.9,130.1,365.1,130.1z"/>
	
		<linearGradient id="SVGID_00000070801452220992881500000013721355338213002630_" gradientUnits="userSpaceOnUse" x1="581.6594" y1="211.0189" x2="581.6594" y2="128.3899">
		<stop  offset="0" style="stop-color:#FFFFFF"/>
		<stop  offset="0.3453" style="stop-color:#FDFDFD"/>
		<stop  offset="0.4945" style="stop-color:#F6F6F6"/>
		<stop  offset="0.606" style="stop-color:#E9E9E9"/>
		<stop  offset="0.6987" style="stop-color:#D7D7D7"/>
		<stop  offset="0.7798" style="stop-color:#C0C0C0"/>
		<stop  offset="0.8526" style="stop-color:#A4A4A4"/>
		<stop  offset="0.9194" style="stop-color:#828282"/>
		<stop  offset="0.9796" style="stop-color:#5B5B5B"/>
		<stop  offset="1" style="stop-color:#4D4D4D"/>
	</linearGradient>
	<path style="fill:url(#SVGID_00000070801452220992881500000013721355338213002630_);" d="M626.8,211c-1.2,0-2,0-2.9,0
		c-17.7,0-35.5,0-53.2,0.1c-2.1,0-3-0.7-3.7-2.6c-4.2-10.5-8.6-20.9-12.8-31.4c-5.8-14.3-11.5-28.7-17.1-43.1
		c-1.3-3.3-0.7-3.8,2.9-4c4.3-0.2,8.6-0.4,13-0.5c6.3-0.2,12.6-0.3,19-0.5c5-0.1,10-0.3,15-0.5c2-0.1,3.3,0.7,4.1,2.5
		c6.1,13.5,12.3,26.9,18.3,40.4c5.6,12.5,11.1,25.1,16.7,37.6C626.3,209.4,626.4,210,626.8,211z"/>
	
		<linearGradient id="SVGID_00000035523631976397988130000005740808170439353521_" gradientUnits="userSpaceOnUse" x1="496.1143" y1="210.7971" x2="496.1143" y2="130.8894">
		<stop  offset="0" style="stop-color:#FFFFFF"/>
		<stop  offset="0.3453" style="stop-color:#FDFDFD"/>
		<stop  offset="0.4945" style="stop-color:#F6F6F6"/>
		<stop  offset="0.606" style="stop-color:#E9E9E9"/>
		<stop  offset="0.6987" style="stop-color:#D7D7D7"/>
		<stop  offset="0.7798" style="stop-color:#C0C0C0"/>
		<stop  offset="0.8526" style="stop-color:#A4A4A4"/>
		<stop  offset="0.9194" style="stop-color:#828282"/>
		<stop  offset="0.9796" style="stop-color:#5B5B5B"/>
		<stop  offset="1" style="stop-color:#4D4D4D"/>
	</linearGradient>
	<path style="fill:url(#SVGID_00000035523631976397988130000005740808170439353521_);" d="M467.4,210.8c-0.1-0.7-0.2-1.3-0.2-1.8
		c0.2-23.9,0.3-47.8,0.5-71.7c0-4.2,0.1-4.2,4.5-4.3c13-0.5,26.1-1,39.1-1.5c3.2-0.1,6.5-0.2,9.7-0.5c2.5-0.2,3.4,1,3.5,3.3
		c0.1,3.2,0.3,6.3,0.4,9.5c0.1,21.7,0.1,43.5,0.1,65.2c0,0.6-0.1,1.1-0.1,1.9C505.7,210.8,486.7,210.8,467.4,210.8z"/>
	
		<linearGradient id="SVGID_00000007430637417060769250000008633478459041085316_" gradientUnits="userSpaceOnUse" x1="400.404" y1="210.765" x2="400.404" y2="134.9273">
		<stop  offset="0" style="stop-color:#FFFFFF"/>
		<stop  offset="0.3453" style="stop-color:#FDFDFD"/>
		<stop  offset="0.4945" style="stop-color:#F6F6F6"/>
		<stop  offset="0.606" style="stop-color:#E9E9E9"/>
		<stop  offset="0.6987" style="stop-color:#D7D7D7"/>
		<stop  offset="0.7798" style="stop-color:#C0C0C0"/>
		<stop  offset="0.8526" style="stop-color:#A4A4A4"/>
		<stop  offset="0.9194" style="stop-color:#828282"/>
		<stop  offset="0.9796" style="stop-color:#5B5B5B"/>
		<stop  offset="1" style="stop-color:#4D4D4D"/>
	</linearGradient>
	<path style="fill:url(#SVGID_00000007430637417060769250000008633478459041085316_);" d="M371.7,210.8c0-0.7-0.1-1.3-0.1-1.8
		c0.1-22.7,0.1-45.5,0.2-68.2c0-3.6,0.2-3.7,3.9-3.8c11.1-0.3,22.1-0.6,33.2-1c5.4-0.2,10.8-0.6,16.2-0.9c2.7-0.2,3.4,0.3,3.5,3.2
		c0.3,7.3,0.6,14.6,0.7,22c0.1,16,0,32,0,48c0,0.8,0,1.6,0,2.7C410,210.8,391,210.8,371.7,210.8z"/>
	
		<linearGradient id="SVGID_00000049907110568462446780000015008529651692039814_" gradientUnits="userSpaceOnUse" x1="217.1891" y1="210.8481" x2="217.1891" y2="142.8967">
		<stop  offset="0" style="stop-color:#FFFFFF"/>
		<stop  offset="0.3453" style="stop-color:#FDFDFD"/>
		<stop  offset="0.4945" style="stop-color:#F6F6F6"/>
		<stop  offset="0.606" style="stop-color:#E9E9E9"/>
		<stop  offset="0.6987" style="stop-color:#D7D7D7"/>
		<stop  offset="0.7798" style="stop-color:#C0C0C0"/>
		<stop  offset="0.8526" style="stop-color:#A4A4A4"/>
		<stop  offset="0.9194" style="stop-color:#828282"/>
		<stop  offset="0.9796" style="stop-color:#5B5B5B"/>
		<stop  offset="1" style="stop-color:#4D4D4D"/>
	</linearGradient>
	<path style="fill:url(#SVGID_00000049907110568462446780000015008529651692039814_);" d="M246.1,210.8c-19.4,0-38.5,0-57.6,0
		c-0.1-0.6-0.2-1-0.2-1.5c0.1-19.1,0.2-38.1,0.5-57.2c0.1-7.4,0.3-7.5,7.7-7.7c11.1-0.3,22.3-0.7,33.4-1c4.2-0.1,8.5-0.3,12.7-0.5
		c2.2-0.1,3.1,0.8,3.2,3c0.1,7.9,0.4,15.8,0.4,23.7c0.1,12.7,0,25.3,0,38C246.1,208.6,246.1,209.6,246.1,210.8z"/>
</g>
</svg>
