<?xml version="1.0" encoding="UTF-8"?>
<svg id="Logos" xmlns="http://www.w3.org/2000/svg" viewBox="0 0 91.95 82.07">
  <defs>
    <style>
      .cls-1 {
        fill: #ee7062;
      }
    </style>
  </defs>
  <path class="cls-1" d="M28.19,79.13c-.63,.73-1.39,1.33-2.22,1.78,.74-.47,1.49-1.06,2.22-1.78Z"/>
  <path class="cls-1" d="M38.86,49.88c0,.06,0,.13-.01,.2-.13,2.6-.47,5.33-1.01,8.15-1.8,9.2-5.51,16.87-9.61,20.87-.01,.01-.02,.02-.03,.03-.73,.72-1.48,1.32-2.22,1.78-.02,.01-.03,.02-.06,.03-1.28,.68-2.77,1.04-4.38,1.11h-.02c-4.26,.19-9.39-1.71-13.8-5.46C2.14,71.87-.68,65.54,.14,60.69c.01-.14,.03-.29,.06-.43,.83-5.28,5.9-8.87,11.34-8.02,1.19,.19,2.3,.58,3.29,1.13,.56,.29,1.07,.65,1.56,1.05-.35-1.33-.64-2.72-.85-4.18-.21-1.43-.35-2.91-.42-4.43-.55-12.51,4.34-22.88,10.92-23.17,6.58-.29,12.35,9.63,12.9,22.14,.08,1.76,.05,3.47-.07,5.12Z"/>
  <path class="cls-1" d="M22.36,19.5c-6.36,4.36-13.53,4.95-16.04,1.3-2.5-3.64,.61-10.14,6.96-14.5,6.34-4.36,13.53-4.95,16.03-1.3,2.5,3.64-.61,10.14-6.95,14.5Z"/>
  <path class="cls-1" d="M91.82,44.02c-.22,2.74-.72,5.28-1.41,7.44-1.02,3.24-2.47,5.59-4.03,6.42-.03,.01-.07,.03-.1,.06-.14,.09-.28,.16-.42,.21-.13,.07-.27,.1-.41,.14-.14,.05-.3,.07-.45,.08-.57,.05-1.14-.07-1.69-.35-1.01-.51-1.98-1.52-2.82-2.93-2.37-3.78-2.54-8.94-3.54-8.96-.56-.01-1.09,1.4-1.48,3.62-.15,1.56,0,3.27,.5,4.98,.3,1.05,.72,2.03,1.23,2.91,.17,.29,.7,1.12,.91,1.39,.1,.14,.19,.28,.27,.43,.55,.93,1,1.97,1.33,3.08,.5,1.71,.65,3.42,.5,4.98-.12,1.2-.41,2.3-.86,3.28-.09,.19-.19,.36-.28,.54-.09,.15-.17,.31-.27,.47-3.05,5.34-7.3,8.83-12.3,9.44-11.78,1.41-23.27-13.65-25.67-33.65-.21-1.75-.34-3.47-.41-5.16-.06-1.75-.05-3.46,.05-5.13v-.03c0-4.07,.79-9.22,2.39-14.62,.57-1.94,1.22-3.79,1.92-5.54,.14-.45,.3-.91,.47-1.36C49.29,4.85,57.96-1.97,64.64,.51c4.54,1.68,6.98,7.22,6.81,14.01-.06,2.83-.58,5.89-1.61,8.96,1.59-2.06,3.36-3.64,5.19-4.64,1.97-1.08,4-1.47,5.95-.99,.55,.13,1.07,.33,1.56,.58,3.24,1.08,6.75,6.58,8.43,13.7,.54,2.25,.83,4.43,.9,6.45,0,.07,0,.15,.01,.22,.1,1.63,.09,3.39-.06,5.21Z"/>
</svg>