<?xml version="1.0" encoding="utf-8"?>
<!-- Generator: Adobe Illustrator 27.0.1, SVG Export Plug-In . SVG Version: 6.00 Build 0)  -->
<svg version="1.1" id="Ebene_1" xmlns="http://www.w3.org/2000/svg" xmlns:xlink="http://www.w3.org/1999/xlink" x="0px" y="0px"
	 viewBox="0 0 1544.6 303.2" style="enable-background:new 0 0 1544.6 303.2;" xml:space="preserve">
<style type="text/css">
	.st0{fill:#387D56;}
</style>
<g id="W4RH7S.tif">
	<g>
		<g>
			<g>
				<path class="st0" d="M596.1,60.7c-16.4,9.4-32.7,18.7-49.1,28.1c16.7-27.7,55.2-38.1,52.3-76.9c-24.3,19.3-46.2,39.7-71,55.6
					c-39,25.2-79.8,47.6-120.2,70.7c-30.7,17.5-61.9,34.2-75,70.3c-0.3,0.7-2.3,0.8-5.1,1.6c-21.4-24.5-51.2-27.5-82.2-31.3
					c-80.3-9.9-163.4-3.2-243.9-41.1c19.1,41.8,59.4,36,87.8,54c-19.9-1.8-39.9-3.6-59.8-5.4l0,0c27.2,8.7,52.9,23.6,82.2,32.9
					c-3.7,1.8,0,0-4.8,2.3c-14.8,7.1-30.6,1.3-49.1-4c74,39.8,157,23.1,236,35.4c-2,8.7-3.4,14.9-5.3,23.1
					c40.8,3.3,77-3.4,110.9-24.6c-5.8-7.3-10.1-12.8-15.5-19.6c8.4-4.5,15.3-8.1,22.2-11.9c48.1-26.9,96.6-53,143.9-81.2
					c13.6-8.1,19.7-26.1,31.3-37.5l0,0c-13.3,7.5-21.9,13.1-35.3,20.6c-4.7,3-5.6,0.1-6-0.7L596.1,60.7z"/>
				<path class="st0" d="M308.3,278.8c-6.3,0-12.8-0.3-19.5-0.8c-0.6,0-1.1-0.3-1.5-0.8c-0.3-0.5-0.5-1.1-0.3-1.6l4.8-20.9
					c-26-3.9-52.9-4.7-79-5.5c-52.2-1.6-106.2-3.3-155.5-29.8c-0.9-0.5-1.3-1.6-0.9-2.5c0.4-1,1.4-1.5,2.4-1.2
					c1.8,0.5,3.7,1.1,5.5,1.6c15.9,4.6,29.6,8.6,42.2,2.5c0.1-0.1,0.2-0.1,0.3-0.2C93.5,215,80.9,209.4,68.7,204
					c-13.4-5.9-26.1-11.6-39.3-15.8c-1-0.3-1.6-1.3-1.4-2.3c0.2-1,1.1-1.7,2.2-1.6l50,4.6c-7.1-3.3-14.6-5.6-22.5-8
					C35.8,174,13.2,167,0.2,138.5c-0.4-0.8-0.2-1.7,0.4-2.3c0.6-0.6,1.5-0.8,2.3-0.4c58.1,27.4,118.4,31.4,176.7,35.3
					c21.9,1.5,44.5,3,66.5,5.7l2.6,0.3c30.3,3.7,58.9,7.3,80,30.8c0.6-0.1,1.1-0.3,1.6-0.4c0.4-0.1,0.8-0.2,1.1-0.2
					c12.9-35,43-52.1,72.1-68.7l3.6-2c7.3-4.2,14.7-8.4,22-12.5c32.5-18.5,66.2-37.6,98.1-58.1c16.9-10.9,32.3-23.7,48.6-37.3
					c7.2-6,14.7-12.2,22.3-18.3c0.6-0.5,1.4-0.6,2.1-0.3c0.7,0.3,1.1,1,1.2,1.7c2,25.8-14,39.7-29.4,53.2
					c-6.2,5.5-12.6,11.1-17.9,17.5L595.1,59c0.9-0.5,2-0.3,2.6,0.5c0.6,0.8,0.6,1.9-0.1,2.6L543.2,121c0.4,0,1-0.3,2.2-1
					c0,0,0.1,0,0.1-0.1c6.6-3.7,12.2-7.1,17.6-10.3c5.4-3.2,11-6.6,17.7-10.3c0.9-0.5,2-0.3,2.6,0.6c0.6,0.8,0.5,1.9-0.2,2.7
					c-4.7,4.6-8.5,10.4-12.2,16.1c-5.4,8.2-11.1,16.8-19.4,21.8c-34.7,20.7-70.7,40.7-105.5,59.9c-12.6,7-25.6,14.2-38.4,21.3
					c-4.6,2.6-9.4,5.1-14.4,7.8c-1.8,1-3.7,2-5.7,3l14,17.7c0.4,0.5,0.5,1,0.4,1.6c-0.1,0.6-0.4,1.1-0.9,1.4
					C373.1,270.5,343.3,278.8,308.3,278.8z M291.4,274.2c40.8,2.9,74.5-4.5,105.4-23.3L382.8,233c-0.4-0.5-0.5-1.1-0.4-1.7
					c0.1-0.6,0.5-1.1,1-1.4c2.8-1.5,5.4-2.9,7.9-4.2c5-2.7,9.7-5.2,14.3-7.7c12.8-7.1,25.8-14.4,38.4-21.3
					c34.8-19.2,70.7-39.2,105.4-59.9c7.6-4.5,12.7-12.3,18.1-20.5c1.7-2.6,3.5-5.3,5.3-7.8c-2.7,1.6-5.2,3.1-7.7,4.6
					c-5.4,3.2-11,6.6-17.6,10.3c-2.3,1.5-4.2,1.9-5.8,1.5c-1.9-0.6-2.7-2.2-3-2.9l-0.1-0.1c-0.4-0.8-0.2-1.7,0.3-2.3L585.7,69
					l-37.6,21.6c-0.8,0.5-1.8,0.3-2.5-0.3c-0.6-0.7-0.8-1.7-0.3-2.5c6.2-10.2,15.2-18.2,24-25.8c14.5-12.6,28.2-24.6,28.2-45.9
					c-6.5,5.2-12.9,10.5-19.1,15.7c-16.4,13.6-31.8,26.5-49,37.6c-32,20.6-65.7,39.7-98.3,58.2c-7.3,4.2-14.7,8.3-22,12.5l-3.6,2
					c-29.9,17.1-58.2,33.2-70.5,67.2c-0.5,1.5-2.1,1.8-3.9,2.2c-0.8,0.2-1.6,0.3-2.5,0.6c-0.8,0.2-1.6,0-2.1-0.6
					c-20.3-23.2-48.5-26.7-78.3-30.4l-2.6-0.3c-21.9-2.7-44.5-4.2-66.3-5.7c-57-3.8-115.8-7.7-172.9-33.2
					c12.5,22.6,31.9,28.7,52.5,35c10.9,3.4,22.2,6.8,32,13.1c0.8,0.5,1.1,1.5,0.8,2.4c-0.3,0.9-1.2,1.4-2.1,1.4l-44.1-4
					c8.2,3.2,16.3,6.8,24.8,10.6c13.6,6,27.6,12.2,42.4,17c0.8,0.3,1.3,1,1.4,1.8c0.1,0.8-0.4,1.6-1.1,2c-1.9,0.9-1.9,0.9-2,1
					c-0.1,0.1-0.4,0.2-2.8,1.3c-8.9,4.3-18,4.2-27.7,2.2c42.5,16.7,88.1,18.1,132.4,19.5c26.9,0.8,54.7,1.7,81.6,5.9
					c0.6,0.1,1,0.4,1.4,0.9c0.3,0.5,0.4,1,0.3,1.6L291.4,274.2z"/>
			</g>
			<g>
				<path class="st0" d="M131.5,144.1L131.5,144.1c7.6-8.3,61-67,69.6-74.3c29.1-24.7,31.4-27.8,61.9-4.6c7.6,5.8,14.8,0.6,19.6-2.9
					c23.9-17.8,46.4-37.5,70.4-55.1c5-3.7,9.7-7,14.1-3.8c31,22.2,67.7,47.6,97.8,71c-9.8,15.3-16.5,13.5-25.5,6.3
					c-19.7-15.7-44.9-33.5-66.2-46.9c-6.5-4.1-14.8-2.4-21,1.7c-27.6,18.2-53.7,38.7-81.8,59.6c0.1,0.1,0,0,0,0
					c-36-26.3-31.6-32.3-72.6-0.2c-17.1,13.4-32.2,28.4-48.1,43.5c-4,3.8-8.5,8.4-13.2,11.4C134.8,147.8,133.1,145.9,131.5,144.1z"
					/>
				<path class="st0" d="M136.4,151.7c-0.6,0-1.1-0.2-1.5-0.7l-4.9-5.6c-0.7-0.8-0.7-1.9,0-2.7l0.7-0.8
					c22.6-24.9,61.7-67.5,69.1-73.7l2.1-1.7c13.9-11.8,21.6-18.3,30.1-19c8.5-0.7,16.9,4.4,32.3,16.1c6.1,4.6,11.6,1.2,17.1-2.9
					c11.4-8.5,22.7-17.6,33.7-26.4c11.9-9.6,24.2-19.5,36.7-28.7c4.8-3.5,10.8-7.9,16.5-3.8c7.6,5.5,15.5,11,23.8,16.9
					c25.3,17.9,51.4,36.4,74.1,54.1c0.8,0.6,1,1.8,0.5,2.7c-5,7.7-9.5,11.7-14.2,12.5c-5.2,0.9-9.9-2.2-14.2-5.6
					c-19.2-15.3-44.5-33.2-66-46.8c-6.2-3.9-13.8-1.7-18.8,1.6c-20.1,13.3-39.2,27.6-59.4,42.8c-7.2,5.4-14.6,10.9-22,16.5
					c-0.6,0.6-1.5,0.8-2.3,0.5c-0.1-0.1-0.3-0.2-0.4-0.2c-4.6-3.4-8.6-6.4-12.1-9.1c-11.6-8.9-17.4-13.3-24.2-12.5
					c-7.1,0.9-16.2,7.5-33.8,21.3c-14.3,11.2-27,23.3-40.5,36.2c-2.5,2.4-5,4.8-7.5,7.2c-0.6,0.6-1.2,1.1-1.8,1.7
					c-3.5,3.4-7.5,7.2-11.7,9.9C137.2,151.6,136.8,151.7,136.4,151.7z M134.2,144.1l2.5,2.9c3.4-2.4,6.6-5.5,9.7-8.5
					c0.6-0.6,1.2-1.2,1.8-1.7c2.5-2.4,5-4.8,7.5-7.2c13.5-12.9,26.3-25.1,40.8-36.4c18.6-14.6,27.6-21.1,35.8-22.2
					c8.5-1.1,15.2,4,27.2,13.3c3.2,2.4,6.7,5.2,10.8,8.2c7.1-5.3,14.2-10.6,21.1-15.8c20.3-15.2,39.4-29.6,59.6-43
					c6.1-4,15.4-6.6,23.2-1.7c21.7,13.7,47.1,31.7,66.4,47c4.9,3.9,8.1,5.3,11,4.8c3.2-0.5,6.6-3.5,10.5-9.1
					c-22.3-17.2-47.8-35.3-72.5-52.8c-8.3-5.9-16.2-11.5-23.8-17c-3.1-2.2-6.7,0-11.8,3.8c-12.4,9.2-24.7,19-36.6,28.6
					c-11,8.8-22.3,18-33.8,26.5c-4.6,3.4-13,9.7-22,2.9c-14.3-10.9-22.4-15.9-29.5-15.3c-7.2,0.6-14.5,6.8-27.8,18.1l-2.1,1.7
					C197.1,75.7,172.3,102.2,134.2,144.1z"/>
			</g>
		</g>
	</g>
</g>
<path class="st0" d="M726.9,130.6h-22.8l-44.5-77.5v77.5h-21.2V21.5h23.9l43.4,76.1V21.5h21.2V130.6z"/>
<path class="st0" d="M749.5,58.7C755,51.6,764.6,48,778.2,48c8.8,0,16.7,1.8,23.5,5.3c6.9,3.5,10.3,10.1,10.3,19.8v37
	c0,2.6,0,5.7,0.1,9.3c0.1,2.8,0.6,4.6,1.3,5.6c0.7,1,1.7,1.8,3.1,2.4v3.1h-22.9c-0.6-1.6-1.1-3.2-1.3-4.6c-0.2-1.4-0.4-3.1-0.6-4.9
	c-2.9,3.2-6.3,5.8-10.1,8.1c-4.5,2.6-9.7,3.9-15.4,3.9c-7.3,0-13.3-2.1-18.1-6.3c-4.8-4.2-7.1-10.1-7.1-17.7
	c0-9.9,3.8-17.1,11.5-21.5c4.2-2.4,10.4-4.1,18.5-5.2l7.2-0.9c3.9-0.5,6.7-1.1,8.4-1.8c3-1.3,4.5-3.3,4.5-6c0-3.3-1.1-5.6-3.4-6.8
	s-5.7-1.9-10.1-1.9c-5,0-8.5,1.2-10.6,3.7c-1.5,1.8-2.5,4.3-3,7.4h-20.3C744,69,746,63.2,749.5,58.7z M765.2,115.3
	c2,1.6,4.4,2.4,7.3,2.4c4.5,0,8.7-1.3,12.5-4c3.8-2.7,5.8-7.5,6-14.6v-7.8c-1.3,0.8-2.7,1.5-4,2c-1.4,0.5-3.2,1-5.6,1.4l-4.7,0.9
	c-4.4,0.8-7.6,1.8-9.5,2.9c-3.3,1.9-4.9,4.9-4.9,9C762.1,111.2,763.1,113.8,765.2,115.3z"/>
<path class="st0" d="M867.6,115.6v15.8l-10,0.4c-10,0.3-16.8-1.4-20.4-5.2c-2.4-2.4-3.6-6.1-3.6-11.2V65.7h-11.2v-15h11.2V28.2h20.9
	v22.5h13.1v15h-13.1v42.6c0,3.3,0.4,5.4,1.3,6.2c0.8,0.8,3.4,1.2,7.7,1.2c0.6,0,1.3,0,2,0C866.2,115.7,867,115.6,867.6,115.6z"/>
<path class="st0" d="M902.9,20.9v19.5h-21.4V20.9H902.9z M902.9,49.9v80.7h-21.4V49.9H902.9z"/>
<path class="st0" d="M990.5,60.1c6.8,8.5,10.2,18.6,10.2,30.3c0,11.8-3.4,22-10.2,30.4c-6.8,8.4-17.1,12.6-31,12.6
	c-13.9,0-24.2-4.2-31-12.6c-6.8-8.4-10.2-18.5-10.2-30.4c0-11.6,3.4-21.7,10.2-30.3c6.8-8.5,17.1-12.8,31-12.8
	C973.4,47.3,983.7,51.6,990.5,60.1z M959.5,65.2c-6.2,0-10.9,2.2-14.2,6.5c-3.3,4.4-5,10.6-5,18.7c0,8.1,1.7,14.3,5,18.7
	c3.3,4.4,8.1,6.6,14.2,6.6c6.2,0,10.9-2.2,14.2-6.6c3.3-4.4,5-10.6,5-18.7c0-8.1-1.7-14.3-5-18.7C970.4,67.4,965.6,65.2,959.5,65.2z
	"/>
<path class="st0" d="M1053.8,65.6c-7.2,0-12.1,3-14.7,9.1c-1.4,3.2-2.1,7.3-2.1,12.3v43.7h-21V50.1h20.3v11.8c2.7-4.1,5.3-7.1,7.7-9
	c4.3-3.3,9.8-4.9,16.5-4.9c8.3,0,15.2,2.2,20.5,6.5c5.3,4.4,8,11.6,8,21.7v54.3h-21.6V81.5c0-4.2-0.6-7.5-1.7-9.8
	C1063.6,67.6,1059.6,65.6,1053.8,65.6z"/>
<path class="st0" d="M1111.5,58.7c5.6-7.1,15.1-10.7,28.7-10.7c8.8,0,16.7,1.8,23.5,5.3c6.9,3.5,10.3,10.1,10.3,19.8v37
	c0,2.6,0,5.7,0.1,9.3c0.1,2.8,0.6,4.6,1.3,5.6c0.7,1,1.7,1.8,3.1,2.4v3.1h-22.9c-0.6-1.6-1.1-3.2-1.3-4.6c-0.2-1.4-0.4-3.1-0.6-4.9
	c-2.9,3.2-6.3,5.8-10.1,8.1c-4.5,2.6-9.7,3.9-15.4,3.9c-7.3,0-13.3-2.1-18.1-6.3c-4.8-4.2-7.1-10.1-7.1-17.7
	c0-9.9,3.8-17.1,11.5-21.5c4.2-2.4,10.4-4.1,18.5-5.2l7.2-0.9c3.9-0.5,6.7-1.1,8.4-1.8c3-1.3,4.5-3.3,4.5-6c0-3.3-1.1-5.6-3.4-6.8
	s-5.7-1.9-10.1-1.9c-5,0-8.5,1.2-10.6,3.7c-1.5,1.8-2.5,4.3-3,7.4h-20.3C1106,69,1108,63.2,1111.5,58.7z M1127.1,115.3
	c2,1.6,4.4,2.4,7.3,2.4c4.5,0,8.7-1.3,12.5-4c3.8-2.7,5.8-7.5,6-14.6v-7.8c-1.3,0.8-2.7,1.5-4,2c-1.4,0.5-3.2,1-5.6,1.4l-4.7,0.9
	c-4.4,0.8-7.6,1.8-9.5,2.9c-3.3,1.9-4.9,4.9-4.9,9C1124.1,111.2,1125.1,113.8,1127.1,115.3z"/>
<path class="st0" d="M1193.2,21.5h21.1v109.1h-21.1V21.5z"/>
<path class="st0" d="M1302.4,58.6c6.5,7,9.8,17.2,9.8,30.6c0,14.2-3.2,25-9.6,32.5c-6.4,7.4-14.6,11.2-24.7,11.2
	c-6.4,0-11.7-1.6-16-4.8c-2.3-1.8-4.6-4.4-6.8-7.8v42h-20.9V49.9h20.2v11.9c2.3-3.5,4.7-6.3,7.3-8.3c4.7-3.6,10.3-5.4,16.7-5.4
	C1287.8,48.2,1295.8,51.6,1302.4,58.6z M1290.4,90.3c0-6.2-1.4-11.7-4.3-16.5c-2.8-4.8-7.4-7.2-13.8-7.2c-7.6,0-12.9,3.6-15.8,10.9
	c-1.5,3.8-2.2,8.7-2.2,14.7c0,9.4,2.5,16,7.5,19.8c3,2.2,6.5,3.3,10.5,3.3c5.9,0,10.3-2.3,13.4-6.8
	C1288.8,103.9,1290.4,97.8,1290.4,90.3z"/>
<path class="st0" d="M1330.4,58.7c5.6-7.1,15.1-10.7,28.7-10.7c8.8,0,16.7,1.8,23.5,5.3c6.9,3.5,10.3,10.1,10.3,19.8v37
	c0,2.6,0,5.7,0.1,9.3c0.1,2.8,0.6,4.6,1.3,5.6c0.7,1,1.7,1.8,3.1,2.4v3.1h-22.9c-0.6-1.6-1.1-3.2-1.3-4.6c-0.2-1.4-0.4-3.1-0.6-4.9
	c-2.9,3.2-6.3,5.8-10.1,8.1c-4.5,2.6-9.7,3.9-15.4,3.9c-7.3,0-13.3-2.1-18.1-6.3c-4.8-4.2-7.1-10.1-7.1-17.7
	c0-9.9,3.8-17.1,11.5-21.5c4.2-2.4,10.4-4.1,18.5-5.2l7.2-0.9c3.9-0.5,6.7-1.1,8.4-1.8c3-1.3,4.5-3.3,4.5-6c0-3.3-1.1-5.6-3.4-6.8
	s-5.7-1.9-10.1-1.9c-5,0-8.5,1.2-10.6,3.7c-1.5,1.8-2.5,4.3-3,7.4h-20.3C1324.9,69,1326.9,63.2,1330.4,58.7z M1346.1,115.3
	c2,1.6,4.4,2.4,7.3,2.4c4.5,0,8.7-1.3,12.5-4c3.8-2.7,5.8-7.5,6-14.6v-7.8c-1.3,0.8-2.7,1.5-4,2c-1.4,0.5-3.2,1-5.6,1.4l-4.7,0.9
	c-4.4,0.8-7.6,1.8-9.5,2.9c-3.3,1.9-4.9,4.9-4.9,9C1343.1,111.2,1344.1,113.8,1346.1,115.3z"/>
<path class="st0" d="M1452.2,69.4c-8.5,0-14.2,2.8-17.1,8.3c-1.6,3.1-2.4,7.9-2.4,14.4v38.6h-21.2V49.9h20.1V64
	c3.3-5.4,6.1-9.1,8.5-11c3.9-3.3,9.1-5,15.4-5c0.4,0,0.7,0,1,0c0.3,0,0.9,0.1,1.8,0.1v21.6c-1.3-0.1-2.5-0.2-3.6-0.3
	C1453.7,69.4,1452.9,69.4,1452.2,69.4z"/>
<path class="st0" d="M1544.6,130.6h-25.5l-19.3-34.5l-8.7,9.1v25.4h-20.7V21.9h20.7v58.8l26.3-30.3h26.1l-28.2,30.9L1544.6,130.6z"
	/>
<path class="st0" d="M734.6,271.4h-29.3l-33.7-47.7l-10.9,11.2v36.5h-22.4V162.3h22.4v44.9l42.1-44.9h29.5l-44.7,44.9L734.6,271.4z"
	/>
<path class="st0" d="M748.7,199.5c5.6-7.1,15.1-10.7,28.7-10.7c8.8,0,16.7,1.8,23.5,5.3c6.9,3.5,10.3,10.1,10.3,19.8v37
	c0,2.6,0,5.7,0.1,9.3c0.1,2.8,0.6,4.6,1.3,5.6c0.7,1,1.7,1.8,3.1,2.4v3.1h-22.9c-0.6-1.6-1.1-3.2-1.3-4.6c-0.2-1.4-0.4-3.1-0.6-4.9
	c-2.9,3.2-6.3,5.8-10.1,8.1c-4.5,2.6-9.7,3.9-15.4,3.9c-7.3,0-13.3-2.1-18.1-6.3c-4.8-4.2-7.1-10.1-7.1-17.7
	c0-9.9,3.8-17.1,11.5-21.5c4.2-2.4,10.4-4.1,18.5-5.2l7.2-0.9c3.9-0.5,6.7-1.1,8.4-1.8c3-1.3,4.5-3.3,4.5-6c0-3.3-1.1-5.6-3.4-6.8
	s-5.7-1.9-10.1-1.9c-5,0-8.5,1.2-10.6,3.7c-1.5,1.8-2.5,4.3-3,7.4h-20.3C743.3,209.8,745.2,204,748.7,199.5z M764.4,256.2
	c2,1.6,4.4,2.4,7.3,2.4c4.5,0,8.7-1.3,12.5-4c3.8-2.7,5.8-7.5,6-14.6v-7.8c-1.3,0.8-2.7,1.5-4,2c-1.4,0.5-3.2,1-5.6,1.4l-4.7,0.9
	c-4.4,0.8-7.6,1.8-9.5,2.9c-3.3,1.9-4.9,4.9-4.9,9C761.4,252,762.4,254.6,764.4,256.2z"/>
<path class="st0" d="M830.4,162.3h21.1v109.1h-21.1V162.3z"/>
<path class="st0" d="M946.1,271.4h-25.5l-19.3-34.5l-8.7,9.1v25.4h-20.7V162.7h20.7v58.8l26.3-30.3H945L916.8,222L946.1,271.4z"/>
<path class="st0" d="M959.4,199.5c5.6-7.1,15.1-10.7,28.7-10.7c8.8,0,16.7,1.8,23.5,5.3c6.9,3.5,10.3,10.1,10.3,19.8v37
	c0,2.6,0,5.7,0.1,9.3c0.1,2.8,0.6,4.6,1.3,5.6c0.7,1,1.7,1.8,3.1,2.4v3.1h-22.9c-0.6-1.6-1.1-3.2-1.3-4.6c-0.2-1.4-0.4-3.1-0.6-4.9
	c-2.9,3.2-6.3,5.8-10.1,8.1c-4.5,2.6-9.7,3.9-15.4,3.9c-7.3,0-13.3-2.1-18.1-6.3c-4.8-4.2-7.1-10.1-7.1-17.7
	c0-9.9,3.8-17.1,11.5-21.5c4.2-2.4,10.4-4.1,18.5-5.2l7.2-0.9c3.9-0.5,6.7-1.1,8.4-1.8c3-1.3,4.5-3.3,4.5-6c0-3.3-1.1-5.6-3.4-6.8
	s-5.7-1.9-10.1-1.9c-5,0-8.5,1.2-10.6,3.7c-1.5,1.8-2.5,4.3-3,7.4h-20.3C953.9,209.8,955.9,204,959.4,199.5z M975.1,256.2
	c2,1.6,4.4,2.4,7.3,2.4c4.5,0,8.7-1.3,12.5-4c3.8-2.7,5.8-7.5,6-14.6v-7.8c-1.3,0.8-2.7,1.5-4,2c-1.4,0.5-3.2,1-5.6,1.4l-4.7,0.9
	c-4.4,0.8-7.6,1.8-9.5,2.9c-3.3,1.9-4.9,4.9-4.9,9C972.1,252,973.1,254.6,975.1,256.2z"/>
<path class="st0" d="M1041.1,162.3h21.1v109.1h-21.1V162.3z"/>
<path class="st0" d="M1150.3,199.4c6.5,7,9.8,17.2,9.8,30.6c0,14.2-3.2,25-9.6,32.5c-6.4,7.4-14.6,11.2-24.7,11.2
	c-6.4,0-11.7-1.6-16-4.8c-2.3-1.8-4.6-4.4-6.8-7.8v42h-20.9V190.8h20.2v11.9c2.3-3.5,4.7-6.3,7.3-8.3c4.7-3.6,10.3-5.4,16.7-5.4
	C1135.8,189,1143.7,192.5,1150.3,199.4z M1138.3,231.1c0-6.2-1.4-11.7-4.3-16.5c-2.8-4.8-7.4-7.2-13.8-7.2
	c-7.6,0-12.9,3.6-15.8,10.9c-1.5,3.8-2.2,8.7-2.2,14.7c0,9.4,2.5,16,7.5,19.8c3,2.2,6.5,3.3,10.5,3.3c5.9,0,10.3-2.3,13.4-6.8
	C1136.8,244.7,1138.3,238.6,1138.3,231.1z"/>
<path class="st0" d="M1244.4,247.7c-0.5,4.8-3,9.6-7.5,14.6c-6.9,7.8-16.6,11.8-29,11.8c-10.3,0-19.3-3.3-27.2-9.9
	c-7.8-6.6-11.8-17.4-11.8-32.3c0-14,3.5-24.7,10.6-32.1c7.1-7.4,16.3-11.2,27.6-11.2c6.7,0,12.8,1.3,18.1,3.8
	c5.4,2.5,9.8,6.5,13.3,11.9c3.2,4.8,5.2,10.3,6.1,16.6c0.5,3.7,0.8,9,0.7,16h-55.2c0.3,8.1,2.8,13.8,7.6,17c2.9,2,6.4,3,10.5,3
	c4.3,0,7.9-1.2,10.6-3.7c1.5-1.3,2.8-3.2,3.9-5.5H1244.4z M1223.5,223c-0.3-5.6-2-9.8-5.1-12.7c-3-2.9-6.8-4.3-11.3-4.3
	c-4.9,0-8.7,1.5-11.4,4.6c-2.7,3.1-4.4,7.2-5.1,12.4H1223.5z"/>
<path class="st0" d="M1297.6,206.4c-7.2,0-12.1,3-14.7,9.1c-1.4,3.2-2.1,7.3-2.1,12.3v43.7h-21v-80.5h20.3v11.8
	c2.7-4.1,5.3-7.1,7.7-9c4.3-3.3,9.8-4.9,16.5-4.9c8.3,0,15.2,2.2,20.5,6.5c5.3,4.4,8,11.6,8,21.7v54.3h-21.6v-49.1
	c0-4.2-0.6-7.5-1.7-9.8C1307.3,208.4,1303.4,206.4,1297.6,206.4z"/>
</svg>
