<svg width="2234" height="442" viewBox="0 0 2234 442" fill="none" xmlns="http://www.w3.org/2000/svg">
<path d="M2193.2 225.091C2185.26 218.636 2177.32 213.92 2169.37 210.94C2161.43 207.713 2153.73 206.099 2146.28 206.099C2136.85 206.099 2129.15 208.334 2123.2 212.802C2117.24 217.271 2114.26 223.105 2114.26 230.305C2114.26 235.27 2115.75 239.366 2118.73 242.593C2121.71 245.821 2125.55 248.676 2130.27 251.158C2135.24 253.393 2140.7 255.379 2146.66 257.116C2152.86 258.854 2158.94 260.716 2164.9 262.702C2188.74 270.647 2206.11 281.322 2217.04 294.728C2228.21 307.885 2233.79 325.139 2233.79 346.489C2233.79 360.888 2231.31 373.922 2226.35 385.59C2221.63 397.258 2214.55 407.313 2205.12 415.753C2195.94 423.946 2184.52 430.276 2170.86 434.745C2157.46 439.462 2142.19 441.82 2125.06 441.82C2089.56 441.82 2056.66 431.269 2026.38 410.168L2057.66 351.33C2068.58 361.012 2079.38 368.212 2090.05 372.929C2100.73 377.646 2111.28 380.004 2121.71 380.004C2133.62 380.004 2142.44 377.273 2148.15 371.812C2154.1 366.35 2157.08 360.144 2157.08 353.192C2157.08 348.972 2156.34 345.372 2154.85 342.393C2153.36 339.166 2150.88 336.311 2147.4 333.828C2143.93 331.097 2139.33 328.615 2133.62 326.38C2128.16 324.146 2121.46 321.664 2113.51 318.933C2104.08 315.954 2094.77 312.726 2085.58 309.251C2076.65 305.527 2068.58 300.686 2061.38 294.728C2054.43 288.769 2048.72 281.322 2044.25 272.384C2040.03 263.199 2037.92 251.655 2037.92 237.752C2037.92 223.85 2040.15 211.313 2044.62 200.141C2049.34 188.721 2055.79 179.039 2063.99 171.095C2072.43 162.903 2082.61 156.572 2094.52 152.103C2106.69 147.635 2120.22 145.4 2135.11 145.4C2149.01 145.4 2163.54 147.386 2178.68 151.359C2193.83 155.082 2208.35 160.668 2222.25 168.116L2193.2 225.091Z" fill="#EEFF00"/>
<path d="M1946.25 215.037V434H1873.27V215.037H1813.31V153.221H2006.21V215.037H1946.25Z" fill="#EEFF00"/>
<path d="M1500.46 434V153.221H1573.44L1708.25 324.891V153.221H1780.86V434H1708.25L1573.44 262.33V434H1500.46Z" fill="#EEFF00"/>
<path d="M1354.57 329.732L1321.8 236.263L1289.03 329.732H1354.57ZM1354.57 329.732H1289.03L1252.91 434H1175.08L1281.96 153.221H1361.65L1468.52 434H1390.69L1354.57 329.732Z" fill="#EEFF00"/>
<path d="M1354.57 329.732L1321.8 236.263L1289.03 329.732H1354.57ZM1373.94 385.218H1269.67L1252.91 434H1175.08L1281.96 153.221H1361.65L1468.52 434H1390.69L1373.94 385.218Z" fill="#EEFF00"/>
<path d="M861.871 434V153.221H934.859L1069.66 324.891V153.221H1142.28V434H1069.66L934.859 262.33V434H861.871Z" fill="#EEFF00"/>
<path d="M463.732 434L511.398 153.221H583.641L639.871 302.92L695.73 153.221H767.973L815.638 434H743.023L718.817 272.385L652.533 434H623.486L560.553 272.385L536.348 434H463.732Z" fill="#EEFF00"/>
<path d="M423.77 215.037H337.003V261.958H418.929V323.774H337.003V372.184H423.77V434H264.016V153.221H423.77V215.037Z" fill="#EEFF00"/>
<path d="M72.9878 278.715H86.7661C101.165 278.715 112.213 275.736 119.909 269.778C127.605 263.82 131.453 255.255 131.453 244.083C131.453 232.911 127.605 224.347 119.909 218.388C112.213 212.43 101.165 209.451 86.7661 209.451H72.9878V278.715ZM233.487 434H142.624L72.9878 326.008V434H0V153.221H113.578C129.218 153.221 142.872 155.579 154.541 160.296C166.209 164.765 175.767 170.971 183.214 178.915C190.91 186.86 196.62 196.045 200.344 206.472C204.316 216.899 206.302 228.07 206.302 239.987C206.302 261.337 201.089 278.715 190.662 292.121C180.484 305.279 165.34 314.216 145.231 318.933L233.487 434Z" fill="#EEFF00"/>
<path d="M776.235 49.9904L770.575 33.8461L764.915 49.9904H776.235ZM779.58 59.5741H761.57L758.676 68H745.233L763.693 19.5027H777.458L795.917 68H782.474L779.58 59.5741ZM896.231 31.9165C894.859 30.8016 893.487 29.9869 892.114 29.4723C890.742 28.9149 889.413 28.6362 888.127 28.6362C886.497 28.6362 885.168 29.0221 884.139 29.7939C883.11 30.5658 882.595 31.5734 882.595 32.817C882.595 33.6746 882.852 34.3821 883.367 34.9395C883.881 35.497 884.546 35.9901 885.361 36.4189C886.218 36.8048 887.162 37.1478 888.191 37.448C889.263 37.7482 890.313 38.0698 891.343 38.4128C895.459 39.785 898.461 41.6288 900.347 43.9443C902.277 46.217 903.242 49.1971 903.242 52.8848C903.242 55.3718 902.813 57.623 901.955 59.6384C901.141 61.6538 899.919 63.3904 898.289 64.8483C896.703 66.2634 894.73 67.3568 892.372 68.1286C890.056 68.9434 887.419 69.3507 884.46 69.3507C878.329 69.3507 872.647 67.5283 867.416 63.8835L872.818 53.721C874.705 55.3933 876.57 56.6368 878.414 57.4515C880.258 58.2662 882.081 58.6736 883.882 58.6736C885.94 58.6736 887.462 58.2019 888.448 57.2586C889.477 56.3152 889.992 55.2432 889.992 54.0426C889.992 53.3136 889.863 52.6918 889.606 52.1773C889.349 51.6198 888.92 51.1267 888.32 50.6979C887.719 50.2262 886.926 49.7974 885.94 49.4115C884.996 49.0256 883.839 48.5968 882.466 48.1251C880.837 47.6106 879.229 47.0531 877.642 46.4528C876.099 45.8096 874.705 44.9734 873.462 43.9443C872.261 42.9152 871.275 41.6288 870.503 40.0851C869.774 38.4986 869.409 36.5046 869.409 34.1034C869.409 31.7021 869.795 29.5366 870.567 27.607C871.382 25.6346 872.497 23.9622 873.912 22.5901C875.37 21.175 877.128 20.0816 879.186 19.3098C881.287 18.5379 883.624 18.152 886.197 18.152C888.598 18.152 891.107 18.495 893.722 19.1811C896.338 19.8243 898.847 20.7891 901.248 22.0755L896.231 31.9165ZM946.946 38.2198H965.149V19.5027H977.756V68H965.149V47.9965H946.946V68H934.34V19.5027H946.946V38.2198ZM1022.07 43.7514C1022.07 45.681 1022.44 47.4605 1023.17 49.0899C1023.89 50.7194 1024.88 52.1344 1026.12 53.335C1027.37 54.5357 1028.8 55.479 1030.43 56.1651C1032.11 56.8083 1033.86 57.1299 1035.71 57.1299C1037.55 57.1299 1039.29 56.8083 1040.92 56.1651C1042.59 55.479 1044.05 54.5357 1045.29 53.335C1046.58 52.1344 1047.59 50.7194 1048.32 49.0899C1049.04 47.4605 1049.41 45.681 1049.41 43.7514C1049.41 41.8218 1049.04 40.0422 1048.32 38.4128C1047.59 36.7834 1046.58 35.3683 1045.29 34.1677C1044.05 32.967 1042.59 32.0451 1040.92 31.4019C1039.29 30.7158 1037.55 30.3728 1035.71 30.3728C1033.86 30.3728 1032.11 30.7158 1030.43 31.4019C1028.8 32.0451 1027.37 32.967 1026.12 34.1677C1024.88 35.3683 1023.89 36.7834 1023.17 38.4128C1022.44 40.0422 1022.07 41.8218 1022.07 43.7514ZM1008.89 43.7514C1008.89 40.1494 1009.55 36.8048 1010.88 33.7174C1012.21 30.5872 1014.05 27.8643 1016.41 25.5488C1018.77 23.2333 1021.58 21.4323 1024.84 20.1459C1028.14 18.8166 1031.76 18.152 1035.71 18.152C1039.61 18.152 1043.21 18.8166 1046.51 20.1459C1049.82 21.4323 1052.65 23.2333 1055 25.5488C1057.41 27.8643 1059.27 30.5872 1060.6 33.7174C1061.93 36.8048 1062.59 40.1494 1062.59 43.7514C1062.59 47.3533 1061.93 50.7194 1060.6 53.8496C1059.27 56.937 1057.41 59.6384 1055 61.9539C1052.65 64.2694 1049.82 66.0918 1046.51 67.4211C1043.21 68.7075 1039.61 69.3507 1035.71 69.3507C1031.76 69.3507 1028.14 68.7075 1024.84 67.4211C1021.58 66.0918 1018.77 64.2694 1016.41 61.9539C1014.05 59.6384 1012.21 56.937 1010.88 53.8496C1009.55 50.7194 1008.89 47.3533 1008.89 43.7514ZM1106.32 41.1786H1108.7C1111.19 41.1786 1113.09 40.664 1114.42 39.6349C1115.75 38.6058 1116.42 37.1264 1116.42 35.1968C1116.42 33.2672 1115.75 31.7878 1114.42 30.7587C1113.09 29.7296 1111.19 29.215 1108.7 29.215H1106.32V41.1786ZM1134.04 68H1118.35L1106.32 49.3472V68H1093.71V19.5027H1113.33C1116.03 19.5027 1118.39 19.9101 1120.41 20.7248C1122.42 21.4966 1124.07 22.5686 1125.36 23.9408C1126.69 25.313 1127.67 26.8995 1128.32 28.7005C1129 30.5014 1129.35 32.431 1129.35 34.4893C1129.35 38.177 1128.45 41.1786 1126.64 43.4941C1124.89 45.7667 1122.27 47.3104 1118.8 48.1251L1134.04 68ZM1180.93 30.1798V68H1168.32V30.1798H1157.97V19.5027H1191.28V30.1798H1180.93ZM1292.85 30.1798H1277.67V38.2842H1291.5V48.9613H1277.67V68H1265.06V19.5027H1292.85V30.1798ZM1336.12 19.5027V68H1323.52V19.5027H1336.12ZM1382.02 19.5027V57.3229H1397.13V68H1369.41V19.5027H1382.02ZM1424.61 68L1432.84 19.5027H1445.32L1455.03 45.3594L1464.68 19.5027H1477.16L1485.39 68H1472.85L1468.67 40.0851L1457.22 68H1452.2L1441.33 40.0851L1437.15 68H1424.61Z" fill="#EEFF00"/>
</svg>
